<svg width="23" height="23" viewBox="0 0 23 23" fill="none" xmlns="http://www.w3.org/2000/svg">
<path d="M20.8438 6.46875H17.25C17.0594 6.46875 16.8766 6.54448 16.7418 6.67927C16.607 6.81406 16.5312 6.99688 16.5312 7.1875C16.5312 7.37812 16.607 7.56094 16.7418 7.69573C16.8766 7.83052 17.0594 7.90625 17.25 7.90625H20.8438C21.0344 7.90625 21.2172 7.98198 21.352 8.11677C21.4868 8.25156 21.5625 8.43438 21.5625 8.625V20.125C21.5625 20.3156 21.4868 20.4984 21.352 20.6332C21.2172 20.768 21.0344 20.8438 20.8438 20.8438H2.15625C1.96563 20.8438 1.78281 20.768 1.64802 20.6332C1.51323 20.4984 1.4375 20.3156 1.4375 20.125V8.625C1.4375 8.43438 1.51323 8.25156 1.64802 8.11677C1.78281 7.98198 1.96563 7.90625 2.15625 7.90625H7.90625C7.90625 8.2875 8.0577 8.65313 8.32728 8.92272C8.59687 9.1923 8.9625 9.34375 9.34375 9.34375H13.6562C14.0375 9.34375 14.4031 9.1923 14.6727 8.92272C14.9423 8.65313 15.0938 8.2875 15.0938 7.90625V2.15625C15.0938 1.775 14.9423 1.40937 14.6727 1.13978C14.4031 0.8702 14.0375 0.71875 13.6562 0.71875H9.34375C8.9625 0.71875 8.59687 0.8702 8.32728 1.13978C8.0577 1.40937 7.90625 1.775 7.90625 2.15625V6.46875H2.15625C1.58438 6.46875 1.03593 6.69593 0.631551 7.1003C0.227176 7.50468 0 8.05313 0 8.625L0 20.125C0 20.6969 0.227176 21.2453 0.631551 21.6497C1.03593 22.0541 1.58438 22.2812 2.15625 22.2812H20.8438C21.4156 22.2812 21.9641 22.0541 22.3685 21.6497C22.7728 21.2453 23 20.6969 23 20.125V8.625C23 8.05313 22.7728 7.50468 22.3685 7.1003C21.9641 6.69593 21.4156 6.46875 20.8438 6.46875ZM9.34375 2.15625H13.6562V7.90625H9.34375V2.15625Z" fill="#8C8C8C"/>
<path d="M2.875 18.6874C2.875 18.8781 2.95073 19.0609 3.08552 19.1957C3.22031 19.3305 3.40313 19.4062 3.59375 19.4062H9.34375C9.53437 19.4062 9.71719 19.3305 9.85198 19.1957C9.98677 19.0609 10.0625 18.8781 10.0625 18.6874C10.0622 18.0989 9.91746 17.5195 9.64087 17C9.36428 16.4806 8.96435 16.037 8.47622 15.7082C8.88545 15.3091 9.16639 14.797 9.28315 14.2373C9.39991 13.6777 9.34718 13.096 9.1317 12.5665C8.91622 12.037 8.54778 11.5837 8.07345 11.2647C7.59911 10.9456 7.04042 10.7751 6.46875 10.7751C5.89708 10.7751 5.33839 10.9456 4.86405 11.2647C4.38972 11.5837 4.02128 12.037 3.8058 12.5665C3.59032 13.096 3.53759 13.6777 3.65435 14.2373C3.77111 14.797 4.05205 15.3091 4.46128 15.7082C3.97315 16.037 3.57322 16.4806 3.29663 17C3.02004 17.5195 2.87526 18.0989 2.875 18.6874ZM5.03125 13.6562C5.03125 13.3719 5.11556 13.094 5.27351 12.8576C5.43147 12.6212 5.65597 12.4369 5.91864 12.3281C6.18131 12.2193 6.47034 12.1909 6.74919 12.2463C7.02804 12.3018 7.28418 12.4387 7.48522 12.6397C7.68625 12.8408 7.82316 13.0969 7.87863 13.3758C7.9341 13.6546 7.90563 13.9436 7.79683 14.2063C7.68803 14.469 7.50378 14.6935 7.26738 14.8514C7.03099 15.0094 6.75306 15.0937 6.46875 15.0937C6.0875 15.0937 5.72187 14.9422 5.45228 14.6727C5.1827 14.4031 5.03125 14.0374 5.03125 13.6562ZM6.46875 16.5312C6.91457 16.5317 7.34931 16.6702 7.71335 16.9275C8.07738 17.1849 8.35289 17.5486 8.50209 17.9687H4.43541C4.58461 17.5486 4.86012 17.1849 5.22415 16.9275C5.58819 16.6702 6.02293 16.5317 6.46875 16.5312Z" fill="#8C8C8C"/>
<path d="M17.9688 17.9688H13.6562C13.4656 17.9688 13.2828 17.893 13.148 17.7582C13.0132 17.6234 12.9375 17.4406 12.9375 17.25C12.9375 17.0594 13.0132 16.8766 13.148 16.7418C13.2828 16.607 13.4656 16.5312 13.6562 16.5312H17.9688C18.1594 16.5312 18.3422 16.607 18.477 16.7418C18.6118 16.8766 18.6875 17.0594 18.6875 17.25C18.6875 17.4406 18.6118 17.6234 18.477 17.7582C18.3422 17.893 18.1594 17.9688 17.9688 17.9688Z" fill="#8C8C8C"/>
<path d="M19.4062 15.0938H13.6562C13.4656 15.0938 13.2828 15.018 13.148 14.8832C13.0132 14.7484 12.9375 14.5656 12.9375 14.375C12.9375 14.1844 13.0132 14.0016 13.148 13.8668C13.2828 13.732 13.4656 13.6562 13.6562 13.6562H19.4062C19.5969 13.6562 19.7797 13.732 19.9145 13.8668C20.0493 14.0016 20.125 14.1844 20.125 14.375C20.125 14.5656 20.0493 14.7484 19.9145 14.8832C19.7797 15.018 19.5969 15.0938 19.4062 15.0938Z" fill="#8C8C8C"/>
<path d="M19.4062 12.2188H13.6562C13.4656 12.2188 13.2828 12.143 13.148 12.0082C13.0132 11.8734 12.9375 11.6906 12.9375 11.5C12.9375 11.3094 13.0132 11.1266 13.148 10.9918C13.2828 10.857 13.4656 10.7812 13.6562 10.7812H19.4062C19.5969 10.7812 19.7797 10.857 19.9145 10.9918C20.0493 11.1266 20.125 11.3094 20.125 11.5C20.125 11.6906 20.0493 11.8734 19.9145 12.0082C19.7797 12.143 19.5969 12.2188 19.4062 12.2188Z" fill="#8C8C8C"/>
<path d="M11.5144 6.46875C11.42 6.46922 11.3264 6.4511 11.239 6.41541C11.1517 6.37973 11.0722 6.32718 11.0051 6.26077C10.8696 6.12666 10.793 5.94422 10.792 5.75359C10.7911 5.56297 10.8659 5.37977 11 5.24431C11.1341 5.10884 11.3166 5.0322 11.5072 5.03125H11.5144C11.705 5.03125 11.8878 5.10698 12.0226 5.24177C12.1574 5.37656 12.2331 5.55938 12.2331 5.75C12.2331 5.94062 12.1574 6.12344 12.0226 6.25823C11.8878 6.39302 11.705 6.46875 11.5144 6.46875Z" fill="#8C8C8C"/>
</svg>
