<svg width="29" height="29" viewBox="0 0 29 29" fill="none" xmlns="http://www.w3.org/2000/svg">
<path d="M27.6406 7.25H27.1875V4.53125C27.1875 1.99375 21.5688 0 14.5 0C7.43125 0 1.8125 1.99375 1.8125 4.53125V7.25H1.35938C0.608887 7.25 0 7.85832 0 8.60938V13.1406C0 13.8911 0.608887 14.5 1.35938 14.5H1.8125V23.5625C1.8125 24.5633 2.62416 25.375 3.625 25.375V27.1875C3.625 28.1883 4.43666 29 5.4375 29H7.25C8.25084 29 9.0625 28.1883 9.0625 27.1875V25.375H19.9375V27.1875C19.9375 28.1883 20.7492 29 21.75 29H23.5625C24.5633 29 25.375 28.1883 25.375 27.1875V25.375H25.7375C26.6437 25.375 27.1875 24.65 27.1875 23.925V14.5H27.6406C28.3911 14.5 29 13.8911 29 13.1406V8.60938C29 7.85832 28.3911 7.25 27.6406 7.25ZM6.34375 22.6562C5.34291 22.6562 4.53125 21.8446 4.53125 20.8438C4.53125 19.8429 5.34291 19.0312 6.34375 19.0312C7.34459 19.0312 8.15625 19.8429 8.15625 20.8438C8.15625 21.8446 7.34459 22.6562 6.34375 22.6562ZM7.25 16.3125C6.24916 16.3125 5.4375 15.5008 5.4375 14.5V7.25C5.4375 6.24916 6.24916 5.4375 7.25 5.4375H21.75C22.7508 5.4375 23.5625 6.24916 23.5625 7.25V14.5C23.5625 15.5008 22.7508 16.3125 21.75 16.3125H7.25ZM22.6562 22.6562C21.6554 22.6562 20.8438 21.8446 20.8438 20.8438C20.8438 19.8429 21.6554 19.0312 22.6562 19.0312C23.6571 19.0312 24.4688 19.8429 24.4688 20.8438C24.4688 21.8446 23.6571 22.6562 22.6562 22.6562Z" fill="white"/>
</svg>
