<svg width="136" height="45" viewBox="0 0 136 45" fill="none" xmlns="http://www.w3.org/2000/svg">
<path d="M22.5 40.7812C22.8883 40.7812 23.2031 40.4665 23.2031 40.0781C23.2031 39.6898 22.8883 39.375 22.5 39.375C22.1117 39.375 21.7969 39.6898 21.7969 40.0781C21.7969 40.4665 22.1117 40.7812 22.5 40.7812Z" fill="white"/>
<path d="M29.9742 31.9077C33.1842 30.2347 35.7401 27.5332 37.2328 24.2356C38.7255 20.938 39.0687 17.2349 38.2075 13.7191C37.3463 10.2032 35.3305 7.07801 32.4827 4.84359C29.6349 2.60918 26.1198 1.39478 22.5 1.39478C18.8802 1.39478 15.3651 2.60918 12.5173 4.84359C9.66954 7.07801 7.65371 10.2032 6.7925 13.7191C5.93129 17.2349 6.27451 20.938 7.76722 24.2356C9.25994 27.5332 11.8158 30.2347 15.0258 31.9077C5.98359 32.5827 1.40625 34.5022 1.40625 37.6171C1.40625 42.5389 12.8742 43.5936 22.5 43.5936C32.1258 43.5936 43.5938 42.56 43.5938 37.6171C43.5938 34.5022 39.0164 32.5827 29.9742 31.9077ZM10.5469 17.578C10.5469 15.2139 11.2479 12.9029 12.5613 10.9372C13.8748 8.97153 15.7416 7.43947 17.9257 6.53476C20.1099 5.63006 22.5133 5.39335 24.8319 5.85456C27.1506 6.31577 29.2805 7.4542 30.9521 9.12587C32.6238 10.7975 33.7622 12.9274 34.2235 15.2461C34.6847 17.5647 34.448 19.9681 33.5432 22.1523C32.6385 24.3364 31.1065 26.2032 29.1408 27.5167C27.1751 28.8301 24.8641 29.5311 22.5 29.5311C19.3298 29.5311 16.2895 28.2718 14.0479 26.0301C11.8062 23.7885 10.5469 20.7482 10.5469 17.578ZM22.5 42.1874C10.357 42.1874 2.8125 40.4366 2.8125 37.6171C2.8125 35.3108 7.85391 33.7147 16.643 33.2085L18.007 34.6147C13.5914 34.8257 7.73438 35.5499 7.73438 37.6171C7.73438 39.9585 15.2016 40.5702 19.6875 40.7319C19.874 40.7319 20.0528 40.6578 20.1847 40.526C20.3165 40.3941 20.3906 40.2153 20.3906 40.0288C20.3906 39.8423 20.3165 39.6635 20.1847 39.5316C20.0528 39.3997 19.874 39.3257 19.6875 39.3257C12.9516 39.0866 9.84375 38.1163 9.20391 37.6171C9.82266 37.1249 12.8531 36.2108 19.3359 35.9225L21.0938 37.6874C21.4722 38.0211 21.9603 38.2039 22.4648 38.2007C22.9833 38.1944 23.4823 38.0022 23.8711 37.6593L25.6008 35.9225C32.1328 36.1827 35.1562 37.1249 35.782 37.6171C35.1562 38.1163 32.0344 39.0866 25.2984 39.3257C25.112 39.3257 24.9331 39.3997 24.8013 39.5316C24.6694 39.6635 24.5953 39.8423 24.5953 40.0288C24.5953 40.2153 24.6694 40.3941 24.8013 40.526C24.9331 40.6578 25.112 40.7319 25.2984 40.7319C29.7492 40.5702 37.2516 39.9585 37.2516 37.6171C37.2516 35.5499 31.3945 34.8046 26.9789 34.5796L28.343 33.1733C37.1461 33.7499 42.1875 35.3108 42.1875 37.6171C42.1875 40.4366 34.643 42.1874 22.5 42.1874Z" fill="white"/>
<path d="M30.2344 12.6562H29.5312V10.582C29.5295 10.0199 29.3078 9.48068 28.9136 9.07989C28.5194 8.6791 27.9839 8.44852 27.4219 8.4375H17.6133C17.0451 8.43935 16.5007 8.66589 16.0989 9.06767C15.6971 9.46944 15.4706 10.0138 15.4688 10.582V12.6562H14.7656C14.3927 12.6562 14.035 12.8044 13.7713 13.0681C13.5075 13.3319 13.3594 13.6895 13.3594 14.0625V16.1719C13.3594 16.5448 13.5075 16.9025 13.7713 17.1662C14.035 17.43 14.3927 17.5781 14.7656 17.5781H15.4688V22.5C15.4656 22.9388 15.5994 23.3676 15.8514 23.7268C16.1035 24.086 16.4613 24.3576 16.875 24.5039V24.8344C16.886 25.3368 17.0929 25.815 17.4515 26.167C17.8101 26.519 18.292 26.717 18.7945 26.7188H19.1742C19.6827 26.7169 20.1699 26.5141 20.5295 26.1545C20.8891 25.7949 21.0919 25.3077 21.0938 24.7992V24.6094H23.9062V24.7992C23.9081 25.3077 24.1109 25.7949 24.4705 26.1545C24.8301 26.5141 25.3173 26.7169 25.8258 26.7188H26.2055C26.714 26.7169 27.2012 26.5141 27.5607 26.1545C27.9203 25.7949 28.1231 25.3077 28.125 24.7992V24.4687C28.5331 24.3245 28.8869 24.0582 29.1384 23.706C29.39 23.3538 29.5271 22.9328 29.5312 22.5V17.5781H30.2344C30.6073 17.5781 30.965 17.43 31.2287 17.1662C31.4925 16.9025 31.6406 16.5448 31.6406 16.1719V14.0625C31.6406 13.6895 31.4925 13.3319 31.2287 13.0681C30.965 12.8044 30.6073 12.6562 30.2344 12.6562ZM18.9844 21.7969C18.8453 21.7969 18.7094 21.7556 18.5937 21.6784C18.4781 21.6011 18.388 21.4913 18.3348 21.3628C18.2816 21.2343 18.2676 21.093 18.2948 20.9566C18.3219 20.8202 18.3889 20.6949 18.4872 20.5966C18.5855 20.4982 18.7108 20.4313 18.8472 20.4041C18.9836 20.377 19.125 20.3909 19.2534 20.4441C19.3819 20.4974 19.4917 20.5875 19.569 20.7031C19.6463 20.8187 19.6875 20.9547 19.6875 21.0938C19.6875 21.2802 19.6134 21.4591 19.4816 21.5909C19.3497 21.7228 19.1709 21.7969 18.9844 21.7969ZM26.0156 21.7969C25.8766 21.7969 25.7406 21.7556 25.625 21.6784C25.5094 21.6011 25.4192 21.4913 25.366 21.3628C25.3128 21.2343 25.2989 21.093 25.326 20.9566C25.3531 20.8202 25.4201 20.6949 25.5184 20.5966C25.6168 20.4982 25.7421 20.4313 25.8785 20.4041C26.0148 20.377 26.1562 20.3909 26.2847 20.4441C26.4132 20.4974 26.523 20.5875 26.6003 20.7031C26.6775 20.8187 26.7188 20.9547 26.7188 21.0938C26.7188 21.2802 26.6447 21.4591 26.5128 21.5909C26.3809 21.7228 26.2021 21.7969 26.0156 21.7969ZM28.125 16.875H16.875V13.3594H28.125V16.875Z" fill="white"/>
<path d="M66.408 34.448C64.6373 34.448 62.9947 34.1707 61.48 33.616C59.9867 33.04 58.6853 32.2293 57.576 31.184C56.488 30.1387 55.6347 28.912 55.016 27.504C54.3973 26.0747 54.088 24.5067 54.088 22.8C54.088 21.0933 54.3973 19.536 55.016 18.128C55.6347 16.6987 56.488 15.4613 57.576 14.416C58.6853 13.3707 59.9867 12.5707 61.48 12.016C62.9947 11.44 64.6373 11.152 66.408 11.152C68.4773 11.152 70.3227 11.5147 71.944 12.24C73.5867 12.9653 74.952 14.0107 76.04 15.376L72.008 19.024C71.2827 18.1707 70.4827 17.52 69.608 17.072C68.7547 16.624 67.7947 16.4 66.728 16.4C65.8107 16.4 64.968 16.5493 64.2 16.848C63.432 17.1467 62.7707 17.584 62.216 18.16C61.6827 18.7147 61.256 19.3867 60.936 20.176C60.6373 20.9653 60.488 21.84 60.488 22.8C60.488 23.76 60.6373 24.6347 60.936 25.424C61.256 26.2133 61.6827 26.896 62.216 27.472C62.7707 28.0267 63.432 28.4533 64.2 28.752C64.968 29.0507 65.8107 29.2 66.728 29.2C67.7947 29.2 68.7547 28.976 69.608 28.528C70.4827 28.08 71.2827 27.4293 72.008 26.576L76.04 30.224C74.952 31.568 73.5867 32.6133 71.944 33.36C70.3227 34.0853 68.4773 34.448 66.408 34.448ZM89.1065 34V30.768L88.6905 29.968V24.016C88.6905 23.056 88.3918 22.32 87.7945 21.808C87.2185 21.2747 86.2905 21.008 85.0105 21.008C84.1785 21.008 83.3358 21.1467 82.4825 21.424C81.6292 21.68 80.9038 22.0427 80.3065 22.512L78.2585 18.384C79.2398 17.744 80.4132 17.2533 81.7785 16.912C83.1652 16.5493 84.5412 16.368 85.9065 16.368C88.7225 16.368 90.8985 17.0187 92.4345 18.32C93.9918 19.6 94.7705 21.616 94.7705 24.368V34H89.1065ZM83.9865 34.288C82.5998 34.288 81.4265 34.0533 80.4665 33.584C79.5065 33.1147 78.7705 32.4747 78.2585 31.664C77.7678 30.8533 77.5225 29.9467 77.5225 28.944C77.5225 27.8773 77.7892 26.96 78.3225 26.192C78.8772 25.4027 79.7198 24.8053 80.8505 24.4C81.9812 23.9733 83.4425 23.76 85.2345 23.76H89.3305V26.928H86.0665C85.0852 26.928 84.3918 27.088 83.9865 27.408C83.6025 27.728 83.4105 28.1547 83.4105 28.688C83.4105 29.2213 83.6132 29.648 84.0185 29.968C84.4238 30.288 84.9785 30.448 85.6825 30.448C86.3438 30.448 86.9412 30.288 87.4745 29.968C88.0292 29.6267 88.4345 29.1147 88.6905 28.432L89.5225 30.672C89.2025 31.8667 88.5732 32.7733 87.6345 33.392C86.7172 33.9893 85.5012 34.288 83.9865 34.288ZM98.6083 34V16.656H104.4V21.712L103.536 20.272C104.048 18.9707 104.88 18 106.032 17.36C107.184 16.6987 108.582 16.368 110.224 16.368V21.84C109.947 21.7973 109.702 21.776 109.488 21.776C109.296 21.7547 109.083 21.744 108.848 21.744C107.611 21.744 106.608 22.0853 105.84 22.768C105.072 23.4293 104.688 24.5173 104.688 26.032V34H98.6083ZM121.009 34.288C118.79 34.288 117.062 33.744 115.825 32.656C114.587 31.5467 113.969 29.8827 113.969 27.664V12.784H120.049V27.6C120.049 28.2187 120.219 28.7093 120.561 29.072C120.902 29.4133 121.339 29.584 121.873 29.584C122.598 29.584 123.217 29.4027 123.729 29.04L125.233 33.296C124.721 33.6373 124.091 33.8827 123.345 34.032C122.598 34.2027 121.819 34.288 121.009 34.288ZM111.441 21.84V17.296H124.017V21.84H111.441ZM127.577 34V16.656H133.657V34H127.577ZM130.617 14.736C129.508 14.736 128.612 14.4267 127.929 13.808C127.246 13.1893 126.905 12.4213 126.905 11.504C126.905 10.5867 127.246 9.81867 127.929 9.2C128.612 8.58133 129.508 8.272 130.617 8.272C131.726 8.272 132.622 8.57067 133.305 9.168C133.988 9.744 134.329 10.4907 134.329 11.408C134.329 12.368 133.988 13.168 133.305 13.808C132.644 14.4267 131.748 14.736 130.617 14.736Z" fill="white"/>
</svg>
