<svg width="770" height="720" viewBox="0 0 770 720" fill="none" xmlns="http://www.w3.org/2000/svg">
<path d="M198.598 376.241L819.198 794.169" stroke="white" stroke-opacity="0.35"/>
<line x1="480.612" y1="894.659" x2="878.384" y2="329.993" stroke="white" stroke-opacity="0.35"/>
<line x1="293.297" y1="316.018" x2="616.769" y2="549.431" stroke="white" stroke-opacity="0.35"/>
<line x1="345.389" y1="214.904" x2="616.865" y2="549.522" stroke="white" stroke-opacity="0.35"/>
<line x1="528.932" y1="160.265" x2="616.964" y2="549.727" stroke="white" stroke-opacity="0.35"/>
<line x1="742.283" y1="205.98" x2="616.947" y2="550.008" stroke="white" stroke-opacity="0.35"/>
<line x1="879.113" y1="330.664" x2="616.798" y2="550.22" stroke="white" stroke-opacity="0.35"/>
<line x1="949.97" y1="542.76" x2="616.488" y2="550.337" stroke="white" stroke-opacity="0.35"/>
<line x1="900.734" y1="628.268" x2="396.059" y2="559.078" stroke="white" stroke-opacity="0.35"/>
<line x1="818.646" y1="794.738" x2="616.092" y2="550.156" stroke="white" stroke-opacity="0.35"/>
<line x1="225.83" y1="773.271" x2="158.531" y2="567.09" stroke="white" stroke-opacity="0.35"/>
<line x1="158.517" y1="566.834" x2="197.873" y2="376.491" stroke="white" stroke-opacity="0.35"/>
<line x1="197.992" y1="376.256" x2="344.631" y2="214.883" stroke="white" stroke-opacity="0.35"/>
<line x1="345.996" y1="213.488" x2="528.303" y2="159.895" stroke="white" stroke-opacity="0.35"/>
<line x1="528.548" y1="159.886" x2="741.917" y2="205.32" stroke="white" stroke-opacity="0.35"/>
<line x1="742.149" y1="205.439" x2="879.129" y2="329.911" stroke="white" stroke-opacity="0.35"/>
<line x1="948.964" y1="543.147" x2="741.387" y2="206.071" stroke="white" stroke-opacity="0.35"/>
<line x1="878.826" y1="330.78" x2="198.396" y2="377.091" stroke="white" stroke-opacity="0.35"/>
<line x1="878.574" y1="330.731" x2="528.226" y2="160.825" stroke="white" stroke-opacity="0.35"/>
<line x1="741.825" y1="206.308" x2="345.013" y2="215.719" stroke="white" stroke-opacity="0.35"/>
<line x1="528.718" y1="160.794" x2="198.636" y2="377.01" stroke="white" stroke-opacity="0.35"/>
<line x1="528.919" y1="160.531" x2="463.642" y2="359.294" stroke="white" stroke-opacity="0.35"/>
<line x1="345.442" y1="215.453" x2="159.449" y2="567.169" stroke="white" stroke-opacity="0.35"/>
<line x1="346.632" y1="213.894" x2="397.758" y2="557.258" stroke="white" stroke-opacity="0.35"/>
<line x1="198.803" y1="376.356" x2="478.052" y2="898.464" stroke="white" stroke-opacity="0.35"/>
<line x1="198.861" y1="376.558" x2="225.553" y2="771.946" stroke="white" stroke-opacity="0.35"/>
<line x1="158.876" y1="566.452" x2="389.219" y2="503.981" stroke="white" stroke-opacity="0.35"/>
<line x1="159.321" y1="566.546" x2="410.757" y2="769.901" stroke="white" stroke-opacity="0.35"/>
<line x1="159.431" y1="566.67" x2="369.338" y2="902.438" stroke="white" stroke-opacity="0.35"/>
<line x1="225.914" y1="772.806" x2="396.872" y2="557.022" stroke="white" stroke-opacity="0.35"/>
<line x1="368.416" y1="902.662" x2="396.766" y2="557.291" stroke="white" stroke-opacity="0.35"/>
<line x1="480.533" y1="894.839" x2="519.38" y2="718.88" stroke="white" stroke-opacity="0.35"/>
<line x1="818.901" y1="794.902" x2="523.149" y2="715.717" stroke="white" stroke-opacity="0.35"/>
<line x1="900.383" y1="628.046" x2="627.239" y2="208.551" stroke="white" stroke-opacity="0.35"/>
<line x1="788.605" y1="461.65" x2="663.769" y2="753.603" stroke="white" stroke-opacity="0.35"/>
<line x1="628.076" y1="208.554" x2="397.681" y2="557.608" stroke="white" stroke-opacity="0.35"/>
<line x1="293.363" y1="316.075" x2="640.682" y2="672.791" stroke="white" stroke-opacity="0.35"/>
<line x1="203.409" y1="477.607" x2="396.32" y2="558.122" stroke="white" stroke-opacity="0.35"/>
<line x1="397.513" y1="557.766" x2="216.41" y2="661.557" stroke="white" stroke-opacity="0.35"/>
<line x1="397.658" y1="557.024" x2="660.209" y2="892.667" stroke="white" stroke-opacity="0.35"/>
<line x1="389.448" y1="503.973" x2="616.575" y2="549.346" stroke="white" stroke-opacity="0.35"/>
<line x1="410.078" y1="769.949" x2="616.111" y2="549.496" stroke="white" stroke-opacity="0.35"/>
<line x1="315.011" y1="818.07" x2="631.349" y2="664.733" stroke="white" stroke-opacity="0.35"/>
<line x1="639.833" y1="673.235" x2="615.986" y2="549.932" stroke="white" stroke-opacity="0.35"/>
<ellipse cx="711.201" cy="341.289" rx="9.29653" ry="8.45139" transform="rotate(-47.7388 711.201 341.289)" fill="#D9D9D9"/>
<path d="M717.116 334.779C720.334 337.703 720.383 343.007 717.085 346.637C713.787 350.266 708.503 350.723 705.285 347.799C702.067 344.876 702.018 339.571 705.316 335.942C708.614 332.312 713.899 331.855 717.116 334.779Z" stroke="white" stroke-opacity="0.34"/>
<circle cx="658.494" cy="440.135" r="9.7191" transform="rotate(-47.7388 658.494 440.135)" fill="#D9D9D9"/>
<circle cx="658.494" cy="440.135" r="9.2191" transform="rotate(-47.7388 658.494 440.135)" stroke="white" stroke-opacity="0.34"/>
<circle cx="731.525" cy="603.563" r="11.4094" transform="rotate(-47.7388 731.525 603.563)" fill="#D9D9D9"/>
<circle cx="731.525" cy="603.563" r="10.9094" transform="rotate(-47.7388 731.525 603.563)" stroke="white" stroke-opacity="0.34"/>
<circle cx="637.822" cy="670.866" r="12.6771" transform="rotate(-47.7388 637.822 670.866)" fill="#D9D9D9"/>
<circle cx="637.822" cy="670.866" r="12.1771" transform="rotate(-47.7388 637.822 670.866)" stroke="white" stroke-opacity="0.34"/>
<circle cx="614.6" cy="548.131" r="9.29653" transform="rotate(-47.7388 614.6 548.131)" fill="#D9D9D9"/>
<circle cx="614.6" cy="548.131" r="8.79653" transform="rotate(-47.7388 614.6 548.131)" stroke="white" stroke-opacity="0.34"/>
<circle cx="552.534" cy="613.921" r="5.91598" transform="rotate(-47.7388 552.534 613.921)" fill="#D9D9D9"/>
<circle cx="552.534" cy="613.921" r="5.41598" transform="rotate(-47.7388 552.534 613.921)" stroke="white" stroke-opacity="0.34"/>
<circle cx="547.836" cy="578.248" r="7.18368" transform="rotate(-47.7388 547.836 578.248)" fill="#D9D9D9"/>
<circle cx="547.836" cy="578.248" r="6.68368" transform="rotate(-47.7388 547.836 578.248)" stroke="white" stroke-opacity="0.34"/>
<circle cx="495.636" cy="525.104" r="9.7191" transform="rotate(-47.7388 495.636 525.104)" fill="#D9D9D9"/>
<circle cx="495.636" cy="525.104" r="9.2191" transform="rotate(-47.7388 495.636 525.104)" stroke="white" stroke-opacity="0.34"/>
<circle cx="487.716" cy="572.15" r="6.76111" transform="rotate(-47.7388 487.716 572.15)" fill="#D9D9D9"/>
<circle cx="487.716" cy="572.15" r="6.26111" transform="rotate(-47.7388 487.716 572.15)" stroke="white" stroke-opacity="0.34"/>
<circle cx="492.599" cy="674.223" r="9.7191" transform="rotate(-47.7388 492.599 674.223)" fill="#D9D9D9"/>
<circle cx="492.599" cy="674.223" r="9.2191" transform="rotate(-47.7388 492.599 674.223)" stroke="white" stroke-opacity="0.34"/>
<circle cx="520.465" cy="718.958" r="8.02882" transform="rotate(-47.7388 520.465 718.958)" fill="#D9D9D9"/>
<circle cx="520.465" cy="718.958" r="7.52882" transform="rotate(-47.7388 520.465 718.958)" stroke="white" stroke-opacity="0.34"/>
<circle cx="382.405" cy="721.973" r="5.91598" transform="rotate(-47.7388 382.405 721.973)" fill="#D9D9D9"/>
<circle cx="382.405" cy="721.973" r="5.41598" transform="rotate(-47.7388 382.405 721.973)" stroke="white" stroke-opacity="0.34"/>
<circle cx="257.706" cy="729.135" r="8.87396" transform="rotate(-47.7388 257.706 729.135)" fill="#D9D9D9"/>
<circle cx="257.706" cy="729.135" r="8.37396" transform="rotate(-47.7388 257.706 729.135)" stroke="white" stroke-opacity="0.34"/>
<circle cx="400.902" cy="558.354" r="11.832" transform="rotate(-47.7388 400.902 558.354)" fill="#D9D9D9"/>
<circle cx="400.902" cy="558.354" r="11.332" transform="rotate(-47.7388 400.902 558.354)" stroke="white" stroke-opacity="0.34"/>
<circle cx="389.976" cy="505.031" r="8.45139" transform="rotate(-47.7388 389.976 505.031)" fill="#D9D9D9"/>
<circle cx="389.976" cy="505.031" r="7.95139" transform="rotate(-47.7388 389.976 505.031)" stroke="white" stroke-opacity="0.34"/>
<circle cx="316.916" cy="603.654" r="8.02882" transform="rotate(-47.7388 316.916 603.654)" fill="#D9D9D9"/>
<circle cx="316.916" cy="603.654" r="7.52882" transform="rotate(-47.7388 316.916 603.654)" stroke="white" stroke-opacity="0.34"/>
<circle cx="284.24" cy="533.422" r="5.91598" transform="rotate(-47.7388 284.24 533.422)" fill="#D9D9D9"/>
<circle cx="284.24" cy="533.422" r="5.41598" transform="rotate(-47.7388 284.24 533.422)" stroke="white" stroke-opacity="0.34"/>
<circle cx="205.833" cy="482.729" r="9.29653" transform="rotate(-47.7388 205.833 482.729)" fill="#D9D9D9"/>
<circle cx="205.833" cy="482.729" r="8.79653" transform="rotate(-47.7388 205.833 482.729)" stroke="white" stroke-opacity="0.34"/>
<circle cx="158.41" cy="566.963" r="8.02882" transform="rotate(-47.7388 158.41 566.963)" fill="#D9D9D9"/>
<circle cx="158.41" cy="566.963" r="7.52882" transform="rotate(-47.7388 158.41 566.963)" stroke="white" stroke-opacity="0.34"/>
<circle cx="216.787" cy="661.691" r="7.60625" transform="rotate(-47.7388 216.787 661.691)" fill="#D9D9D9"/>
<circle cx="216.787" cy="661.691" r="7.10625" transform="rotate(-47.7388 216.787 661.691)" stroke="white" stroke-opacity="0.34"/>
<circle cx="741.842" cy="206.405" r="9.7191" transform="rotate(-47.7388 741.842 206.405)" fill="#D9D9D9"/>
<circle cx="741.842" cy="206.405" r="9.2191" transform="rotate(-47.7388 741.842 206.405)" stroke="white" stroke-opacity="0.34"/>
<circle cx="573.569" cy="353.258" r="10.1417" transform="rotate(-47.7388 573.569 353.258)" fill="#D9D9D9"/>
<circle cx="573.569" cy="353.258" r="9.64167" transform="rotate(-47.7388 573.569 353.258)" stroke="white" stroke-opacity="0.34"/>
<circle cx="528.444" cy="160.375" r="10.1417" transform="rotate(-47.7388 528.444 160.375)" fill="#D9D9D9"/>
<circle cx="528.444" cy="160.375" r="9.64167" transform="rotate(-47.7388 528.444 160.375)" stroke="white" stroke-opacity="0.34"/>
<circle cx="507.677" cy="214.018" r="10.5642" transform="rotate(-47.7388 507.677 214.018)" fill="#D9D9D9"/>
<circle cx="507.677" cy="214.018" r="10.0642" transform="rotate(-47.7388 507.677 214.018)" stroke="white" stroke-opacity="0.34"/>
<circle cx="346.28" cy="216.952" r="10.5642" transform="rotate(-47.7388 346.28 216.952)" fill="#D9D9D9"/>
<circle cx="346.28" cy="216.952" r="10.0642" transform="rotate(-47.7388 346.28 216.952)" stroke="white" stroke-opacity="0.34"/>
<circle cx="367.377" cy="370.301" r="9.29653" transform="rotate(-47.7388 367.377 370.301)" fill="#D9D9D9"/>
<circle cx="367.377" cy="370.301" r="8.79653" transform="rotate(-47.7388 367.377 370.301)" stroke="white" stroke-opacity="0.34"/>
<circle cx="500.67" cy="405.206" r="6.33854" transform="rotate(-47.7388 500.67 405.206)" fill="#D9D9D9"/>
<circle cx="500.67" cy="405.206" r="5.83854" transform="rotate(-47.7388 500.67 405.206)" stroke="white" stroke-opacity="0.34"/>
<circle cx="463.167" cy="359.138" r="5.91598" transform="rotate(-47.7388 463.167 359.138)" fill="#D9D9D9"/>
<circle cx="463.167" cy="359.138" r="5.41598" transform="rotate(-47.7388 463.167 359.138)" stroke="white" stroke-opacity="0.34"/>
<circle cx="469.098" cy="445.605" r="7.60625" transform="rotate(-47.7388 469.098 445.605)" fill="#D9D9D9"/>
<circle cx="469.098" cy="445.605" r="7.10625" transform="rotate(-47.7388 469.098 445.605)" stroke="white" stroke-opacity="0.34"/>
<circle cx="292.408" cy="316.452" r="9.7191" transform="rotate(-47.7388 292.408 316.452)" fill="#D9D9D9"/>
<circle cx="292.408" cy="316.452" r="9.2191" transform="rotate(-47.7388 292.408 316.452)" stroke="white" stroke-opacity="0.34"/>
<ellipse cx="197.652" cy="380.514" rx="10.9868" ry="10.5642" transform="rotate(-47.7388 197.652 380.514)" fill="#D9D9D9"/>
<path d="M204.705 372.753C208.805 376.479 209.008 382.983 205.101 387.283C201.193 391.583 194.7 392.001 190.6 388.276C186.5 384.55 186.296 378.046 190.204 373.746C194.112 369.446 200.605 369.028 204.705 372.753Z" stroke="white" stroke-opacity="0.34"/>
<circle cx="628.255" cy="208.249" r="5.49341" transform="rotate(-47.7388 628.255 208.249)" fill="#D9D9D9"/>
<circle cx="628.255" cy="208.249" r="4.99341" transform="rotate(-47.7388 628.255 208.249)" stroke="white" stroke-opacity="0.34"/>
</svg>
