<svg width="27" height="31" viewBox="0 0 27 31" fill="none" xmlns="http://www.w3.org/2000/svg">
<path d="M8.25872 16.5208C4.05055 18.4166 0.998987 22.3542 0.46582 27.1667C0.46582 28.7708 1.68047 30.0833 3.29134 30.0833H23.708C25.3195 30.0833 26.5343 28.7708 26.5343 27.1667C26.0005 22.3542 22.9482 18.4166 18.7409 16.5208C17.7945 18.4166 15.8082 19.875 13.4997 19.875C11.1911 19.875 9.20445 18.4166 8.25872 16.5208Z" fill="white"/>
<path d="M20.7913 8.20841C20.7913 10.1423 20.0231 11.9969 18.6557 13.3644C17.2882 14.7319 15.4335 15.5001 13.4997 15.5001C11.5658 15.5001 9.71114 14.7319 8.34369 13.3644C6.97623 11.9969 6.20801 10.1423 6.20801 8.20841C6.20801 6.27454 6.97623 4.41988 8.34369 3.05243C9.71114 1.68497 11.5658 0.916748 13.4997 0.916748C15.4335 0.916748 17.2882 1.68497 18.6557 3.05243C20.0231 4.41988 20.7913 6.27454 20.7913 8.20841Z" fill="white"/>
<path d="M13.4997 14.0417C11.6374 14.0417 9.86215 14.434 8.25872 15.1355C4.05055 16.9759 0.998987 20.9645 0.46582 25.7084C0.46582 27.3199 1.68047 28.6251 3.29134 28.6251H23.708C25.3195 28.6251 26.5343 27.3199 26.5343 25.7084C26.0005 20.9645 22.9482 16.9759 18.7409 15.1355C17.1368 14.434 15.362 14.0417 13.4997 14.0417Z" fill="white"/>
</svg>
